<?xml version="1.0" encoding="UTF-8"?>
<svg width="47px" height="90px" viewBox="0 0 47 90" version="1.1" xmlns="http://www.w3.org/2000/svg" xmlns:xlink="http://www.w3.org/1999/xlink">
    <!-- Generator: Sketch 60.1 (88133) - https://sketch.com -->
    <title>Group 7</title>
    <desc>Created with Sketch.</desc>
    <defs>
        <polygon id="path-1" points="0.381714692 0.61627312 36.5226667 0.61627312 36.5226667 87.1109333 0.381714692 87.1109333"></polygon>
        <polygon id="path-3" points="0 0.0426666667 36.0374149 0.0426666667 36.0374149 86.6183111 0 86.6183111"></polygon>
    </defs>
    <g id="Campaign-Creation-V6" stroke="none" stroke-width="1" fill="none" fill-rule="evenodd">
        <g id="New-Email-Campaign-Creation-" transform="translate(-976.000000, -462.000000)">
            <g id="Group-8" transform="translate(891.000000, 410.000000)">
                <g id="Group-7" transform="translate(85.000000, 52.000000)">
                    <g id="Group-3" transform="translate(9.666667, 2.401778)">
                        <mask id="mask-2" fill="white">
                            <use xlink:href="#path-1"></use>
                        </mask>
                        <g id="Clip-2"></g>
                        <path d="M33.3388444,21.8593778 L27.1539556,21.8593778 L30.2917333,13.2398222 L30.8544,13.2398222 C32.1744,13.2398222 33.3388444,14.3269333 33.3388444,15.7242667 L33.3388444,21.8593778 Z M33.3388444,65.4238222 L11.2979556,65.4238222 L26.0241778,24.9651556 L33.3388444,24.9651556 L33.3388444,65.4238222 Z M33.2615111,78.2362667 C33.3388444,79.5571556 32.2517333,80.6442667 30.8544,80.6442667 L5.7584,80.6442667 L10.1388444,68.6078222 L33.2615111,68.6078222 L33.2615111,78.2362667 Z M31.4410667,10.0816 L34.0179556,3.0016 C34.3539556,2.07893333 33.8784,1.05937778 32.9557333,0.723377778 C32.0330667,0.389155556 31.0126222,0.862933333 30.6766222,1.7856 L0.489066667,84.7251556 C0.153955556,85.6469333 0.629511111,86.6673778 1.55217778,87.0024889 C1.75306667,87.0762667 1.95751111,87.1109333 2.16017778,87.1109333 C2.8864,87.1109333 3.56817778,86.6620444 3.8304,85.9402667 L4.62773333,83.7500444 L30.8544,83.7500444 C33.9601778,83.7500444 36.4455111,81.2656 36.4455111,78.1589333 L36.5228444,15.6469333 C36.5228444,12.7127111 34.3041778,10.3358222 31.4410667,10.0816 L31.4410667,10.0816 Z" id="Fill-1" fill="#1E2533" mask="url(#mask-2)"></path>
                    </g>
                    <g id="Group-6" transform="translate(0.000000, 0.846222)">
                        <mask id="mask-4" fill="white">
                            <use xlink:href="#path-3"></use>
                        </mask>
                        <g id="Clip-5"></g>
                        <path d="M5.59182222,75.3107556 C4.27093333,75.3107556 3.10648889,74.2236444 3.10648889,72.8254222 L3.10648889,63.2743111 L9.99893333,63.2743111 L5.61848889,75.3107556 L5.59182222,75.3107556 Z M3.18382222,19.6316444 L25.8842667,19.6316444 L11.1580444,60.0903111 L3.18382222,60.0903111 L3.18382222,19.6316444 Z M3.18382222,10.3134222 C3.18382222,8.98986667 4.26737778,7.90631111 5.59093333,7.90631111 L30.1518222,7.90631111 L27.0149333,16.5258667 L3.18382222,16.5258667 L3.18382222,10.3134222 Z M34.8673778,0.148977778 C33.9456,-0.185244444 32.9242667,0.289422222 32.5882667,1.21208889 L31.3109333,4.72231111 L5.59182222,4.72231111 C2.50382222,4.72231111 -0.000177777778,7.22631111 -0.000177777778,10.3143111 L-0.000177777778,72.8254222 C-0.000177777778,75.5489778 1.94737778,77.8138667 4.52604444,78.3125333 L2.37137778,84.2316444 C2.03537778,85.1534222 2.51093333,86.1747556 3.4336,86.5098667 C3.63448889,86.5836444 3.83982222,86.6183111 4.0416,86.6183111 C4.76782222,86.6183111 5.4496,86.1694222 5.71271111,85.4467556 L35.9296,2.42808889 C36.2656,1.50542222 35.7900444,0.484977778 34.8673778,0.148977778 L34.8673778,0.148977778 Z" id="Fill-4" fill="#1E2533" mask="url(#mask-4)"></path>
                    </g>
                </g>
            </g>
        </g>
    </g>
</svg>