<?xml version="1.0" encoding="UTF-8"?>
<svg width="98px" height="95px" viewBox="0 0 98 95" version="1.1" xmlns="http://www.w3.org/2000/svg" xmlns:xlink="http://www.w3.org/1999/xlink">
    <title>seo</title>
    <g id="V3-Custom-Reporting-Release-1" stroke="none" stroke-width="1" fill="none" fill-rule="evenodd">
        <g id="No-Option-Selected" transform="translate(-590.000000, -393.000000)" fill="#000000" fill-rule="nonzero">
            <g id="Group-5" transform="translate(531.000000, 350.000000)">
                <g id="Group-10">
                    <g id="seo" transform="translate(59.000000, 43.000000)">
                        <path d="M78.7666168,17.2333832 C77.6619479,17.2333832 76.7666168,18.1287143 76.7666168,19.2333832 C76.7666168,20.3380521 77.6619479,21.2333832 78.7666168,21.2333832 C79.8712857,21.2333832 80.7666168,20.3380521 80.7666168,19.2333832 C80.7666168,18.1287143 79.8712857,17.2333832 78.7666168,17.2333832 L78.7666168,17.2333832 Z" id="Path"></path>
                        <path d="M86.0886993,0.478515625 C85.4509277,-0.159255934 84.4168853,-0.159255934 83.7791138,0.478515625 L70.7118989,13.5449829 C70.4060975,13.8515321 70.2333832,14.2664947 70.2333832,14.7001495 L70.2333832,26.1329346 C70.2333832,27.0353852 70.9646148,27.7666168 71.8670654,27.7666168 L83.3005981,27.7666168 C83.7335053,27.7666168 84.1484679,27.5946503 84.4550171,27.2881011 L97.5214844,14.2208862 C98.1592559,13.5831147 98.1592559,12.5498199 97.5214844,11.9113007 L86.0886993,0.478515625 Z M83,26.5 L72,26 L72,14.5 L85,1.5 L96.5,13 L83,26.5 Z" id="Shape"></path>
                        <path d="M6.53323355,55.5332335 L6.53323355,55.7425841 C6.53996282,58.6809692 8.56991587,61.2283173 11.4335327,61.8900146 L11.4335327,76.7666168 C11.4335327,77.6690674 12.1647645,78.400299 13.0664673,78.400299 L22.8663178,78.400299 C23.7687684,78.400299 24.5,77.6690674 24.5,76.7666168 L24.5,70.2333832 L26.1463927,70.2333832 C28.8425293,70.2259063 31.0265045,68.0426788 31.0332335,65.3465424 L31.0332335,61.8900146 C33.1192627,61.4010314 34.8157501,59.8877257 35.5380097,57.8704834 L63.0369569,70.0928193 C63.8616485,70.4591827 64.8269043,70.0875854 65.1925201,69.2628936 C65.2852325,69.0542909 65.3338319,68.8284912 65.3331009,68.599701 L65.3331009,29.3995513 C65.3338319,28.4978486 64.6026001,27.7666168 63.7001495,27.7666168 C63.4721069,27.7666168 63.2455596,27.8144683 63.0369569,27.9071807 L35.5380097,40.1295166 C34.6452789,37.6195527 32.2728882,35.9410096 29.6089019,35.9335327 L12.8578643,35.9335327 C9.36619573,35.9365234 6.53697209,38.7664947 6.53323355,42.2574159 L6.53323355,42.4667665 L1.6336822,42.4667665 C0.731231594,42.4667665 0,43.197998 0,44.099701 L0,53.8995513 C0,54.802002 0.731231594,55.5332335 1.6336822,55.5332335 L6.53323355,55.5332335 Z M53.5332335,34.1429738 L63.5,29.5 L63.5,68 L53.5332335,64.0290233 L53.5332335,34.1429738 Z M36,42 L51.5,35 L51.5,63 L36,55.5 L36,42 Z M23,69.5 L23,77 L13.2333832,77.0664673 L13.2333832,62.0664673 L23,62 L23,69.5 Z M29.5,66.0826406 C29.4988556,67.1775444 28.3899063,68.0655516 27.0200274,68.0664673 L24.5,68.0664673 L24.5,62.0664673 L29.5,62.0664673 L29.5,66.0826406 Z M8.66691594,54.2994308 L8.66691594,41.2315284 C8.66936826,39.3373496 10.164431,37.8015291 12.0101672,37.7998505 L30.3236645,37.7998505 C32.1694009,37.8015291 33.6644636,39.3373496 33.6669159,41.2315284 L33.6669159,56.3681726 C33.6644636,58.2623515 32.1694009,59.7981719 30.3236645,59.7998505 L12.0101672,59.7998505 C10.164431,59.7981719 8.66936826,58.2623515 8.66691594,56.3681726 L8.66691594,54.2994308 Z M1.26661677,44.2666172 L6.26661677,44.2666172 L6.26661677,54.2666172 L1.26661677,54.2666172 L1.26661677,44.2666172 Z" id="Shape"></path>
                        <path d="M81.3536377,64.225769 C80.7158661,63.5879975 79.6818237,63.5879975 79.0440522,64.225769 L67.4931336,75.7766876 C66.8553619,76.4144591 66.8553619,77.4485015 67.4931336,78.0862733 L83.6632232,94.2563629 C84.300995,94.8941346 85.3342896,94.8941346 85.9728087,94.2563629 L97.5214844,82.7069396 C98.1592559,82.069168 98.1592559,81.0351258 97.5214844,80.3973541 L81.3536377,64.225769 Z M95.5,81 L80,81 L80,65.5 L95.5,81 Z M84.5,92.5 L69,77 L79,66.5 L79,81 C79,81 79,82 79,82 C79,82 79.7240548,82 80,82 C81.3333333,82 86.5,82 95.5,82 L84.5,92.5 Z" id="Shape"></path>
                        <path d="M44.1004487,31.0332632 C50.4019013,31.0474395 55.5220185,25.9505005 55.5369721,19.6490479 C55.5422059,17.166748 53.991623,13.9843446 52.5,12 L62.5,2 L60.9120483,0.478515625 L50.9342499,10.4533233 C45.8821717,6.66482534 38.7156524,7.68840032 34.9271544,12.7397309 C31.1386567,17.7910614 32.1622314,24.9575806 37.213562,28.7468262 C39.2001495,30.2362061 41.6174012,31.0384674 44.1004487,31.0332632 Z M54,19.5 C54,21.7799414 52.9696521,24.5552706 51,26.5 C49.0727877,28.4028267 46.2304462,29.5 44,29.5 C41.7503967,29.5 38.8093933,28.4283117 37,26.5 C35.1813162,24.5617871 34.5,21.7611541 34.5,19.5 C34.5029567,16.9534963 35.8019796,13.8677934 38,12 C39.6928688,10.5614651 42.0384115,10.0026024 44,10 C46.2434155,10 48.5679587,10.7038428 50.5,12.5 C52.4520029,14.3147149 54,17.2334058 54,19.5 Z" id="Shape"></path>
                        <path d="M70.2333832,57.1669159 L78.400299,57.1669159 L78.400299,58.7998505 C78.400299,59.7023009 79.1315308,60.4335327 80.0339814,60.4335327 L93.1004487,60.4335327 C94.0021514,60.4335327 94.7333832,59.7023009 94.7333832,58.7998505 L94.7333832,50.6643371 C94.7251587,47.8904419 92.9710998,45.4223481 90.3549653,44.5019531 C93.2948456,42.4099425 93.981964,38.3305968 91.8899536,35.3907166 C89.7986908,32.4508361 85.7193451,31.7629699 82.7794648,33.8549805 C79.8395844,35.9469911 79.1517182,40.0263368 81.2437286,42.9662169 C81.6661681,43.5598755 82.1850586,44.0795136 82.7794648,44.5019531 C81.7222442,44.8787842 80.7794189,45.5210419 80.0414581,46.3666688 C79.4724731,45.7109527 78.7778779,45.1748657 77.9987945,44.7905578 C80.1939849,43.2084657 80.6911925,40.1459657 79.1091004,37.9507752 C77.527008,35.7555848 74.464508,35.258377 72.2685699,36.8404693 C70.0733795,38.4225616 69.5761719,41.4850616 71.1582642,43.680252 C71.4663086,44.1079254 71.8416444,44.4825135 72.2685699,44.7905578 C70.0315094,45.8784332 68.6079254,48.145401 68.6004487,50.6329346 L68.6004487,55.5332335 C68.6004487,56.4349365 69.3316803,57.1669159 70.2333832,57.1669159 L70.2333832,57.1669159 Z M86.8338319,34.4667665 C89.5953331,34.4667665 91.8338319,36.7052649 91.8338319,39.4667665 C91.8338319,42.2282677 89.5953331,44.4667665 86.8338319,44.4667665 C84.0723304,44.4667665 81.8338319,42.2271233 81.8338319,39.4667665 C81.8338319,36.7052649 84.0723304,34.4667665 86.8338319,34.4667665 Z M80.6669159,56.9999973 L80.6669159,50.5411585 C80.6705781,48.1260369 82.4760256,46.1701355 84.7053687,46.1661681 L88.6293787,46.1661681 C90.8578063,46.1701355 92.6641693,48.1260369 92.6669159,50.5411585 L92.6669159,59.1661681 L80.6669159,59.1661681 L80.6669159,56.9999973 Z M75.000801,37.266617 C76.9330511,37.266617 78.5000002,38.8335661 78.5000002,40.7658157 C78.5000002,42.6996679 76.9330511,44.266617 75.000801,44.266617 C73.0669489,44.266617 71.5000002,42.6996679 71.5000002,40.7658157 C71.5000002,38.8335661 73.0669489,37.266617 75.000801,37.266617 Z M70.400299,50.3657457 C70.400299,47.6045602 72.4149477,45.3663178 74.900299,45.3663178 C77.3856505,45.3663178 79.400299,47.6057044 79.400299,50.3657457 L79.400299,55.3663178 L70.400299,55.3663178 L70.400299,50.3657457 Z" id="Shape"></path>
                    </g>
                </g>
            </g>
        </g>
    </g>
</svg>