<?xml version="1.0" encoding="UTF-8"?>
<svg width="107px" height="91px" viewBox="0 0 107 91" version="1.1" xmlns="http://www.w3.org/2000/svg" xmlns:xlink="http://www.w3.org/1999/xlink">
    <title>Group 12</title>
    <defs>
        <path d="M4.6,7.92874315 L1.975,5.30374315 C1.83635975,5.16338213 1.64728745,5.08438185 1.45,5.08438185 C1.25271255,5.08438185 1.06364025,5.16338213 0.925,5.30374315 C0.6325,5.59624315 0.6325,6.06124315 0.925,6.35374315 L4.0675,9.49624315 C4.36,9.78874315 4.8325,9.78874315 5.125,9.49624315 L13.075,1.55374315 C13.3675,1.26124315 13.3675,0.796243153 13.075,0.503743153 C12.9363597,0.363382126 12.7472874,0.284381847 12.55,0.284381847 C12.3527126,0.284381847 12.1636403,0.363382126 12.025,0.503743153 L4.6,7.92874315 Z" id="path-1"></path>
    </defs>
    <g id="V3-Custom-Reporting-Release-1" stroke="none" stroke-width="1" fill="none" fill-rule="evenodd">
        <g id="No-Option-Selected" transform="translate(-829.000000, -408.000000)">
            <g id="Group-8-Copy" transform="translate(775.000000, 350.000000)">
                <g id="Group-2">
                    <g id="Group-12" transform="translate(54.000000, 58.000000)">
                        <g id="confirmation" fill="#000000" fill-rule="nonzero">
                            <path d="M105.901693,34.1673177 L94.4246419,24.7841796 L94.4246419,7.37858083 C94.4246419,3.86132812 91.5633138,1 88.0452475,1 L71.25,1 C70.0992838,1 69,0.84928375 69,2 C69,3.15071625 69.3492838,3 70.5,3 L88.5,3 C89.7198892,3 92.5,5.28092438 92.5,6.5 L92.5,44.5 L62.9166667,65.1438802 L33.5,44.5 L33.5,26 C33.5,26 33.5,23.5008138 33.5,23.5 L33.5,6.5 C33.5,6.411116 33.4651135,5.60834719 33.5,5.5 C33.9435943,4.12232699 37,2 38,3 L54.5,3 C55.6507163,3 56,3.15071625 56,2 C56,0.84928375 55.7340496,1 54.5833333,1 L37.7880858,1 C34.2700196,1 31.4086915,3.86132812 31.4086915,7.37858083 L31.4086915,24.7841796 L19.9316406,34.1673177 C19.4474283,34.5628254 19.1666667,35.1552733 19.1666667,35.7802733 L19,59 L10,59 C8.84928375,59 7,59.5 7,60.5 C7,61.5 8.84928375,61.5 10,61.5 L19,61.5 L19.1666667,84.6214192 C19.1666667,88.1386719 22.0279948,91 25.5452475,91 L100.288086,91 C103.805339,91 106.666667,88.1386719 106.666667,84.6214192 L106.666667,35.7802733 C106.666667,35.1552733 106.385905,34.5628254 105.901693,34.1673177 Z M104,88 L75.5,59 L105,39 L104,88 Z M94.4246419,28.1658529 L104.424642,35.9382981 L94.4246419,43.1658529 L94.4246419,28.1658529 Z M63,67.5 C63.4443358,67.5 65.6272785,65.7832033 66,65.5 L74,60 L103,89.5 L23,89 L52,60 L60,65.5 C60.3719075,65.7832033 62.5556642,67.5 63,67.5 Z M20.9833983,38.2830404 L51,58.5 L20.9833983,88.2830404 L20.9833983,38.2830404 Z M31.4086915,43.1879883 L21.4086915,35.9604336 L31.4086915,28.1879883 L31.4086915,43.1879883 Z" id="Shape"></path>
                            <path d="M13.3333333,72.2426758 L2.08333333,72.2426758 C0.932617083,72.2426758 0,72.690332 0,73.2426758 C0,73.7946289 0.932617083,74.2426758 2.08333333,74.2426758 L13.3333333,74.2426758 C14.4840496,74.2426758 15.4166667,73.7946289 15.4166667,73.2426758 C15.4166667,72.690332 14.4840496,72.2426758 13.3333333,72.2426758 Z" id="Path"></path>
                            <path d="M61.8333333,5 C62.3591145,5 62.8755209,4.7859376 63.2473957,4.4140624 C63.6192709,4.0421876 63.8333333,3.5257812 63.8333333,3 C63.8333333,2.4742188 63.6192709,1.9578124 63.2473957,1.5859376 C62.8755209,1.2140624 62.3591145,1 61.8333333,1 C61.3075521,1 60.7911457,1.2140624 60.4192709,1.5859376 C60.0473957,1.9578124 59.8333333,2.4742188 59.8333333,3 C59.8333333,3.5257812 60.0473957,4.0421876 60.4192709,4.4140624 C60.7911457,4.7859376 61.3075521,5 61.8333333,5 Z" id="Path"></path>
                            <path d="M46.0139975,31.2067058 C46.0139975,40.527181 53.5961915,48.1101887 62.9166667,48.1101887 C72.2371419,48.1101887 79.8193358,40.527181 79.8193358,31.2067058 C79.8193358,21.8862304 72.2371419,14.3040365 62.9166667,14.3040365 C53.5961915,14.3040365 46.0139975,21.8862304 46.0139975,31.2067058 Z M78.0139975,31.3035574 C78.0139975,39.5748585 71.2855632,46.3040365 63.0139975,46.3040365 C54.7424318,46.3040365 48.0139975,39.5748585 48.0139975,31.3035574 C48.0139975,23.032256 54.7424318,16.3040365 63.0139975,16.3040365 C71.2855632,16.3040365 78.0139975,23.0332144 78.0139975,31.3035574 Z" id="Shape"></path>
                        </g>
                        <g id="Icon-/-Done-/-Rounded" transform="translate(55.833333, 26.283040)">
                            <mask id="mask-2" fill="white">
                                <use xlink:href="#path-1"></use>
                            </mask>
                            <g id="icon/action/done_24px" fill-rule="nonzero"></g>
                            <g id="↳-Icon-Color" mask="url(#mask-2)" fill="#000000" fill-opacity="0.927748033">
                                <g transform="translate(-2.000000, -4.000000)" id="Rectangle">
                                    <rect x="0" y="0" width="18" height="18"></rect>
                                </g>
                            </g>
                        </g>
                    </g>
                </g>
            </g>
        </g>
    </g>
</svg>