<?xml version="1.0" encoding="UTF-8"?>
<svg width="97px" height="98px" viewBox="0 0 97 98" version="1.1" xmlns="http://www.w3.org/2000/svg" xmlns:xlink="http://www.w3.org/1999/xlink">
    <!-- Generator: Sketch 60.1 (88133) - https://sketch.com -->
    <title>Group 53 Copy</title>
    <desc>Created with Sketch.</desc>
    <g id="Campaign-Creation-V6" stroke="none" stroke-width="1" fill="none" fill-rule="evenodd">
        <g id="Group-53-Copy" transform="translate(2.000000, 2.000000)">
            <path d="M46.5,0 C20.8187886,0 0,20.8187886 0,46.5 C0,72.1812114 20.8187886,93 46.5,93 C72.1812114,93 93,72.1812114 93,46.5 C93,20.8187886 72.1812114,0 46.5,0 Z" id="Fill-1" stroke="#FFFFFF" stroke-width="3" fill="#FFFFFF"></path>
            <path d="M47,75 L13,55.1291536 C13,55.1127456 13,55.0911168 13.0060204,55.0747088 C13.0338645,54.9479196 14.9099602,53.395871 17.7718902,51.0912914 C17.7997344,51.0696626 17.8215582,51.0472881 17.8494024,51.0256593 C27.2381585,43.4712622 47,28 47,28 C47,28 66.7625941,43.4712622 76.1505976,51.0256593 C79.0569278,53.363055 80.966888,54.9426989 80.9939796,55.0747088 C81,55.0911168 81,55.1127456 81,55.1291536 L47,75 Z" id="Fill-3" stroke="#1E2533" stroke-width="3" fill="#FFFFFF"></path>
            <path d="M61.1145354,19 L24.6610383,19 C21.5343803,19 19,21.5564748 19,24.7094603 L19,80.2905397 C19,83.4435252 21.5343803,86 24.6610383,86 L70.3382139,86 C73.4656197,86 76,83.4435252 76,80.2905397 L76,34.0108053 L61.1145354,19 Z" id="Fill-5" stroke="#1E2533" stroke-width="3" fill="#FFFFFF"></path>
            <path d="M63,27.8160764 C63,30.1266014 64.8733986,32 67.1839236,32 L74,32 L63,21 L63,27.8160764 Z" id="Fill-7" stroke="#1E2533" stroke-width="3" fill="#FFFFFF"></path>
            <path d="M59.3471219,34 L28.6528781,34 C27.740106,34 27,34.6716521 27,35.5 C27,36.3283479 27.740106,37 28.6528781,37 L59.3471219,37 C60.259894,37 61,36.3283479 61,35.5 C61,34.6716521 60.259894,34 59.3471219,34" id="Fill-9" stroke="#1E2533" fill="#1E2533"></path>
            <path d="M59.3471219,43 L28.6528781,43 C27.740106,43 27,43.6716521 27,44.5 C27,45.3283479 27.740106,46 28.6528781,46 L59.3471219,46 C60.259894,46 61,45.3283479 61,44.5 C61,43.6716521 60.259894,43 59.3471219,43" id="Fill-11" stroke="#1E2533" fill="#1E2533"></path>
            <path d="M45.3521025,50 L28.6478975,50 C27.7378759,50 27,50.6716521 27,51.5 C27,52.3283479 27.7378759,53 28.6478975,53 L45.3521025,53 C46.2621241,53 47,52.3283479 47,51.5 C47,50.6716521 46.2621241,50 45.3521025,50" id="Fill-13" stroke="#1E2533" fill="#1E2533"></path>
            <path d="M81,57 L81,89.8303992 C81,92.1246264 79.136677,94 76.8571919,94 L17.1322724,94 C14.8527872,94 13,92.1246264 13,89.8303992 L13,57 L46.9996237,77.1769294 L81,57 Z" id="Fill-15" stroke="#1E2533" stroke-width="3" fill="#FBFBFB"></path>
            <path d="M57.3521927,71.0029862 L46.5026056,77.4181706 L35.6492962,71 L14,92.7114386 C14.7444481,93.5005518 15.7911422,94 16.956948,94 L76.0378409,94 C77.2029022,94 78.2518296,93.5012984 79,92.7121851 L57.3521927,71.0029862 Z" id="Fill-17" stroke="#1E2533" stroke-width="3" fill="#FFFFFF"></path>
        </g>
    </g>
</svg>