<?xml version="1.0" encoding="UTF-8"?>
<svg width="138px" height="119px" viewBox="0 0 138 119" version="1.1" xmlns="http://www.w3.org/2000/svg" xmlns:xlink="http://www.w3.org/1999/xlink">
    <!-- Generator: Sketch 60.1 (88133) - https://sketch.com -->
    <title>Group 53</title>
    <desc>Created with Sketch.</desc>
    <defs>
        <linearGradient x1="50%" y1="0%" x2="50%" y2="171.665968%" id="linearGradient-1">
            <stop stop-color="#03B6FC" offset="0%"></stop>
            <stop stop-color="#1B71FF" offset="100%"></stop>
        </linearGradient>
        <polygon id="path-2" points="0.842485714 0.212666667 5.76677143 0.212666667 5.76677143 5 0.842485714 5"></polygon>
        <polygon id="path-4" points="0.555075 0.6807 5.466 0.6807 5.466 5.5917 0.555075 5.5917"></polygon>
        <polygon id="path-6" points="0.267557143 0.133714286 5.93712857 0.133714286 5.93712857 5.8026 0.267557143 5.8026"></polygon>
        <polygon id="path-8" points="0 0.6040125 5.66927143 0.6040125 5.66927143 5.5648875 0 5.5648875"></polygon>
    </defs>
    <g id="Campaign-Creation-V6" stroke="none" stroke-width="1" fill="none" fill-rule="evenodd">
        <g id="New-Email-Campaign-Creation-Highlighted" transform="translate(-674.000000, -441.000000)">
            <g id="Group-53" transform="translate(674.000000, 441.000000)">
                <path d="M66.5,17 C40.8187886,17 20,37.8187886 20,63.5 C20,89.1812114 40.8187886,110 66.5,110 C92.1812114,110 113,89.1812114 113,63.5 C113,37.8187886 92.1812114,17 66.5,17 Z" id="Fill-1" fill="url(#linearGradient-1)"></path>
                <path d="M101,74.1291536 L67,94 L33,74.1291536 C33,74.1127456 33,74.0911168 33.0060204,74.0747088 C33.0338645,73.9479196 34.9099602,72.395871 37.7718902,70.0912914 C37.7997344,70.0696626 37.8215582,70.0472881 37.8494024,70.0256593 C47.2381585,62.4712622 67,47 67,47 C67,47 86.7625941,62.4712622 96.1505976,70.0256593 C99.0569278,72.363055 100.966888,73.9426989 100.99398,74.0747088 C101,74.0911168 101,74.1127456 101,74.1291536" id="Fill-3" fill="#0C2340"></path>
                <path d="M81.1145354,36 L44.6610383,36 C41.5343803,36 39,38.5564748 39,41.7094603 L39,97.2905397 C39,100.443525 41.5343803,103 44.6610383,103 L90.3382139,103 C93.4656197,103 96,100.443525 96,97.2905397 L96,51.0108053 L81.1145354,36 Z" id="Fill-5" fill="#FFFFFF"></path>
                <path d="M81,46.2946496 C81,49.4453655 83.5546345,52 86.7053504,52 L96,52 L81,37 L81,46.2946496 Z" id="Fill-7" fill="#E6E8E8"></path>
                <path d="M79.3471219,51 L48.6528781,51 C47.740106,51 47,51.6716521 47,52.5 C47,53.3283479 47.740106,54 48.6528781,54 L79.3471219,54 C80.259894,54 81,53.3283479 81,52.5 C81,51.6716521 80.259894,51 79.3471219,51" id="Fill-9" fill="#D9DBDB"></path>
                <path d="M79.3471219,60 L48.6528781,60 C47.740106,60 47,60.6716521 47,61.5 C47,62.3283479 47.740106,63 48.6528781,63 L79.3471219,63 C80.259894,63 81,62.3283479 81,61.5 C81,60.6716521 80.259894,60 79.3471219,60" id="Fill-11" fill="#D9DBDB"></path>
                <path d="M65.3521025,67 L48.6478975,67 C47.7378759,67 47,67.6716521 47,68.5 C47,69.3283479 47.7378759,70 48.6478975,70 L65.3521025,70 C66.2621241,70 67,69.3283479 67,68.5 C67,67.6716521 66.2621241,67 65.3521025,67" id="Fill-13" fill="#D9DBDB"></path>
                <path d="M101,74 L101,106.830399 C101,109.124626 99.136677,111 96.8571919,111 L37.1322724,111 C34.8527872,111 33,109.124626 33,106.830399 L33,74 L66.9996237,94.1769294 L101,74 Z" id="Fill-15" fill="#03B6FC"></path>
                <path d="M77.3521927,87.0029862 L66.5026056,93.4181706 L55.6492962,87 C40.5962709,100.936291 33.14363,108.052121 33.2913737,108.34749 C33.5129891,108.790543 33.8166515,109.478197 34.5958303,110.083566 C35.3750092,110.688936 35.6832922,110.869439 37.1322724,111 L96,111 C96.6035365,111 97.7717297,110.958511 98.6548668,110.541688 C99.4765295,110.153879 100.02262,109.403932 100.383216,109.023603 L77.3521927,87.0029862 Z" id="Fill-17" fill="#4C5463"></path>
                <path d="M20.4995983,88.9170301 C19.7170894,88.9170301 19.083209,88.2824191 19.083209,87.5 C19.083209,86.7175809 19.7170894,86.0837732 20.4995983,86.0837732 C21.2821072,86.0837732 21.916791,86.7175809 21.916791,87.5 C21.916791,88.2824191 21.2821072,88.9170301 20.4995983,88.9170301 M20.4995983,84 C18.5666246,84 17,85.5672481 17,87.5 C17,89.4335552 18.5666246,91 20.4995983,91 C22.432572,91 24,89.4335552 24,87.5 C24,85.5672481 22.432572,84 20.4995983,84" id="Fill-19" fill="#006BAF"></path>
                <path d="M107.5,102.916791 C106.717581,102.916791 106.08297,102.282107 106.08297,101.500402 C106.08297,100.717893 106.717581,100.083209 107.5,100.083209 C108.282419,100.083209 108.91703,100.717893 108.91703,101.500402 C108.91703,102.282107 108.282419,102.916791 107.5,102.916791 M107.5,98 C105.567248,98 104,99.567428 104,101.500402 C104,103.433375 105.567248,105 107.5,105 C109.432752,105 111,103.433375 111,101.500402 C111,99.567428 109.432752,98 107.5,98" id="Fill-21" fill="#006BAF"></path>
                <path d="M133.499625,51.5122171 C132.940489,51.5122171 132.487783,51.0595113 132.487783,50.5003748 C132.487783,49.9412382 132.940489,49.4885325 133.499625,49.4885325 C134.058762,49.4885325 134.512217,49.9412382 134.512217,50.5003748 C134.512217,51.0595113 134.058762,51.5122171 133.499625,51.5122171 M133.499625,48 C132.119023,48 131,49.1197721 131,50.5003748 C131,51.8809774 132.119023,53 133.499625,53 C134.880228,53 136,51.8809774 136,50.5003748 C136,49.1197721 134.880228,48 133.499625,48" id="Fill-23" fill="#006BAF"></path>
                <path d="M90,11.2140326 C89.3288914,11.2140326 88.78537,10.6705882 88.78537,10.0004252 C88.78537,9.32941176 89.3288914,8.7859674 90,8.7859674 C90.670258,8.7859674 91.2137794,9.32941176 91.2137794,10.0004252 C91.2137794,10.6705882 90.670258,11.2140326 90,11.2140326 M90,7 C88.3430678,7 87,8.34372785 87,10.0004252 C87,11.6571226 88.3430678,13 90,13 C91.6569322,13 93,11.6571226 93,10.0004252 C93,8.34372785 91.6569322,7 90,7" id="Fill-25" fill="#03B6FC"></path>
                <path d="M7,69 C5.34304207,69 4,70.3436699 4,71.9995955 C4,73.6563301 5.34304207,75 7,75 C8.65695793,75 10,73.6563301 10,71.9995955 C10,70.3436699 8.65695793,69 7,69" id="Fill-27" fill="#03B6FC"></path>
                <path d="M117,79 C115.895069,79 115,79.8958102 115,81 C115,82.1049314 115.895069,83 117,83 C118.10419,83 119,82.1049314 119,81 C119,79.8958102 118.10419,79 117,79" id="Fill-29" fill="#03B6FC"></path>
                <path d="M51,8 C49.3432268,8 48,9.34322679 48,11 C48,12.6567732 49.3432268,14 51,14 C52.6567732,14 54,12.6567732 54,11 C54,9.34322679 52.6567732,8 51,8" id="Fill-31" fill="#006BAF"></path>
                <g id="Group-35" transform="translate(63.000000, 114.000000)">
                    <mask id="mask-3" fill="white">
                        <use xlink:href="#path-2"></use>
                    </mask>
                    <g id="Clip-34"></g>
                    <path d="M3.30505714,0.212666667 C1.94562857,0.212666667 0.842485714,1.28433333 0.842485714,2.60683333 C0.842485714,3.9285 1.94562857,5.00016667 3.30505714,5.00016667 C4.66448571,5.00016667 5.76677143,3.9285 5.76677143,2.60683333 C5.76677143,1.28433333 4.66448571,0.212666667 3.30505714,0.212666667" id="Fill-33" fill="#03B6FC" mask="url(#mask-3)"></path>
                </g>
                <path d="M107.500371,20 C106.11968,20 105,21.1189382 105,22.5003708 C105,23.8803203 106.11968,25 107.500371,25 C108.881062,25 110,23.8803203 110,22.5003708 C110,21.1189382 108.881062,20 107.500371,20" id="Fill-36" fill="#006BAF"></path>
                <path d="M18.5,39 C17.6714435,39 17,39.6714435 17,40.5 C17,41.3285565 17.6714435,42 18.5,42 C19.3285565,42 20,41.3285565 20,40.5 C20,39.6714435 19.3285565,39 18.5,39" id="Fill-38" fill="#03B6FC"></path>
                <g id="Group-42" transform="translate(132.000000, 34.000000)">
                    <mask id="mask-5" fill="white">
                        <use xlink:href="#path-4"></use>
                    </mask>
                    <g id="Clip-41"></g>
                    <path d="M3.010575,0.6807 C1.654575,0.6807 0.555075,1.7802 0.555075,3.1362 C0.555075,4.4922 1.654575,5.5917 3.010575,5.5917 C4.366575,5.5917 5.466075,4.4922 5.466075,3.1362 C5.466075,1.7802 4.366575,0.6807 3.010575,0.6807" id="Fill-40" fill="#03B6FC" mask="url(#mask-5)"></path>
                </g>
                <path d="M5.5,48 C4.67137386,48 4,48.6713739 4,49.5 C4,50.3286261 4.67137386,51 5.5,51 C6.32790809,51 7,50.3286261 7,49.5 C7,48.6713739 6.32790809,48 5.5,48" id="Fill-43" fill="#006BAF"></path>
                <g id="Group-47" transform="translate(66.000000, 0.000000)">
                    <mask id="mask-7" fill="white">
                        <use xlink:href="#path-6"></use>
                    </mask>
                    <g id="Clip-46"></g>
                    <path d="M4.52005714,2.96845714 L5.64462857,1.84388571 C6.03462857,1.45388571 6.03462857,0.816171429 5.64462857,0.426171429 C5.25462857,0.0361714286 4.61691429,0.0361714286 4.22691429,0.426171429 L3.10234286,1.55074286 L1.97777143,0.426171429 C1.58777143,0.0361714286 0.950057143,0.0361714286 0.560057143,0.426171429 C0.170057143,0.816171429 0.170057143,1.45388571 0.560057143,1.84388571 L1.68462857,2.96845714 L0.560057143,4.09302857 C0.170057143,4.48302857 0.170057143,5.12074286 0.560057143,5.51074286 C0.950057143,5.89988571 1.58777143,5.89988571 1.97777143,5.51074286 L3.10234286,4.38617143 L4.22691429,5.51074286 C4.61691429,5.89988571 5.25462857,5.89988571 5.64462857,5.51074286 C6.03462857,5.12074286 6.03462857,4.48302857 5.64462857,4.09302857 L4.52005714,2.96845714 Z" id="Fill-45" fill="#03B6FC" mask="url(#mask-7)"></path>
                </g>
                <g id="Group-50" transform="translate(0.000000, 30.000000)">
                    <mask id="mask-9" fill="white">
                        <use xlink:href="#path-8"></use>
                    </mask>
                    <g id="Clip-49"></g>
                    <path d="M4.2522,3.08445 L5.37677143,2.10045 C5.76677143,1.7592 5.76677143,1.2012 5.37677143,0.85995 C4.98677143,0.5187 4.34905714,0.5187 3.95905714,0.85995 L2.83448571,1.84395 L1.70991429,0.85995 C1.32077143,0.5187 0.6822,0.5187 0.2922,0.85995 C-0.0978,1.2012 -0.0978,1.7592 0.2922,2.10045 L1.41677143,3.08445 L0.2922,4.06845 C-0.0978,4.4097 -0.0978,4.9677 0.2922,5.30895 C0.6822,5.6502 1.32077143,5.6502 1.70991429,5.30895 L2.83448571,4.32495 L3.95905714,5.30895 C4.34905714,5.6502 4.98677143,5.6502 5.37677143,5.30895 C5.76677143,4.9677 5.76677143,4.4097 5.37677143,4.06845 L4.2522,3.08445 Z" id="Fill-48" fill="#03B6FC" mask="url(#mask-9)"></path>
                </g>
                <path d="M119.000045,93 L119.793297,92.2066411 C120.068901,91.9310006 120.068901,91.4811211 119.793297,91.2061948 C119.518408,90.9312684 119.068589,90.9312684 118.792985,91.2061948 L117.999732,91.9995537 L117.20648,91.2061948 C116.93159,90.9312684 116.481771,90.9312684 116.206167,91.2061948 C115.931278,91.4811211 115.931278,91.9310006 116.206167,92.2066411 L116.99942,93 L116.206167,93.7933589 C115.931278,94.0682853 115.931278,94.5181648 116.206167,94.7938052 C116.481771,95.0687316 116.93159,95.0687316 117.20648,94.7938052 L117.999732,94.0004463 L118.792985,94.7938052 C119.068589,95.0687316 119.518408,95.0687316 119.793297,94.7938052 C120.068901,94.5181648 120.068901,94.0682853 119.793297,93.7933589 L119.000045,93 Z" id="Fill-51" fill="#006BAF"></path>
            </g>
        </g>
    </g>
</svg>