<?xml version="1.0" encoding="UTF-8"?>
<svg width="99px" height="95px" viewBox="0 0 99 95" version="1.1" xmlns="http://www.w3.org/2000/svg" xmlns:xlink="http://www.w3.org/1999/xlink">
    <title>Group 10</title>
    <g id="V3-Custom-Reporting-Release-1" stroke="none" stroke-width="1" fill="none" fill-rule="evenodd">
        <g id="No-Option-Selected" transform="translate(-1080.000000, -401.000000)">
            <g id="Group-11" transform="translate(1022.000000, 350.000000)">
                <g id="Group">
                    <g id="Group-10" transform="translate(58.000000, 51.000000)">
                        <g id="progress" transform="translate(0.000000, 30.000000)" fill="#000000" fill-rule="nonzero">
                            <path d="M97.0859375,63.171875 L95.171875,63.171875 L95.171875,5.30363469 C95.171875,4.24641414 94.3150331,3.38957219 93.2578125,3.38957219 L82.5390625,3.38957219 C81.4818419,3.38957219 80.625,4.24641414 80.625,5.30363469 L80.625,63.171875 L76.2226563,63.171875 L76.2226563,28.1445312 C76.2226563,27.0880585 75.3658143,26.2304687 74.3085938,26.2304687 L63.5898438,26.2304687 C62.5326232,26.2304687 61.6757813,27.0880585 61.6757813,28.1445312 L61.6757813,63.171875 L57.2734375,63.171875 L57.2734375,38.2890625 C57.2734375,37.2325898 56.4165956,36.375 55.359375,36.375 L44.640625,36.375 C43.5834044,36.375 42.7265625,37.2325898 42.7265625,38.2890625 L42.7265625,63.171875 L38.3242188,63.171875 L38.3242188,28.1445312 C38.3242188,27.0880585 37.4673768,26.2304687 36.4101563,26.2304687 L25.6914063,26.2304687 C24.6341857,26.2304687 23.7773438,27.0880585 23.7773438,28.1445312 L23.7773438,63.171875 L19.375,63.171875 L19.375,45.6260528 C19.375,44.5695801 18.5181581,43.7119903 17.4609375,43.7119903 L6.7421875,43.7119903 C5.68496695,43.7119903 4.828125,44.5695801 4.828125,45.6260528 L4.828125,63.171875 L2.9140625,63.171875 C1.85684195,63.171875 1,62.9435273 1,64 C1,65.0572206 1.94277945,65 3,65 L97,65 C98.0572206,65 99,65.0572206 99,64 C99,62.9435273 98.1431581,63.171875 97.0859375,63.171875 Z M6.5,63 L6.5,45.5 L17.5,45.5 L17.5,63 L6.5,63 Z M25.5,63 L25.5,27.5 L36.5,27.5 L36.5,63 L25.5,63 Z M44.5,63 L44.5,38 L55.5,38 L55.5,63 L44.5,63 Z M63.5,63 L63.5,27.5 L74.5,27.5 L74.5,63 L63.5,63 Z M82.5,63 L82.5,5.5 L93.5,5.5 L93.5,63 L82.5,63 Z" id="Shape"></path>
                            <path d="M74.4394532,0.43945305 C74.1605469,0.71835945 74,1.1056641 74,1.5 C74,1.89609375 74.1605469,2.28164055 74.4394532,2.56054695 C74.7183594,2.8412109 75.1050782,3 75.5,3 C75.8943361,3 76.2810548,2.8412109 76.560547,2.56054695 C76.840625,2.28164055 77,1.89492195 77,1.5 C77,1.1056641 76.840625,0.72011715 76.560547,0.43945305 C76.2810548,0.16054695 75.8943361,0 75.5,0 C75.1050782,0 74.7183594,0.16054695 74.4394532,0.43945305 Z" id="Path"></path>
                        </g>
                        <path d="M96.884736,1.98810807 L78.4667478,7.94811093 L81.2796811,10.4812106 L59.1760735,32.5848183 L40.0154384,13.7471613 L1.47819541,52.2844043 L9.6099192,60.4161281 L40.1715203,29.8540427 L59.2153018,48.8970514 L67.8315852,40.1949992 L89.8384605,18.1870872 L92.8826085,20.9280874 L96.884736,1.98810807 Z" id="Combined-Shape" stroke="#202A3B" stroke-width="1.5" fill="#FFFFFF"></path>
                    </g>
                </g>
            </g>
        </g>
    </g>
</svg>