<?xml version="1.0" encoding="utf-8"?>
<!-- Generator: Adobe Illustrator 22.1.0, SVG Export Plug-In . SVG Version: 6.00 Build 0)  -->
<svg version="1.1" id="Layer_1" xmlns="http://www.w3.org/2000/svg" xmlns:xlink="http://www.w3.org/1999/xlink" x="0px" y="0px"
	 viewBox="0 0 1600 900" style="enable-background:new 0 0 1600 900;" xml:space="preserve">
<style type="text/css">
	.st0{fill:#25282A;}
</style>
<g id="Maropost_1_">
	<g>
		<g>
			<path class="st0" d="M1317.8,516.9c-5.6,0-9.7-4.2-9.7-9.8c0-5.9,4.5-9.8,9.7-9.8c5.2,0,9.6,3.9,9.6,9.8
				C1327.4,512.9,1323,516.9,1317.8,516.9z M1317.8,498.9c-4.2,0-7.5,3.3-7.5,8.1c0,4.5,2.9,8.1,7.5,8.1c4.2,0,7.5-3.3,7.5-8.1
				C1325.3,502.3,1322,498.9,1317.8,498.9z M1315.9,512.7h-1.8v-10.9h4.1c2.6,0,4,0.9,4,3.1c0,2-1.2,2.8-2.8,3l3,4.8h-2l-2.8-4.7
				h-1.7V512.7z M1317.9,506.5c1.3,0,2.5-0.1,2.5-1.7c0-1.3-1.3-1.5-2.4-1.5h-2.2v3.2H1317.9z"/>
		</g>
		<g>
			<g>
				<path class="st0" d="M743.3,518.4c-42.6,0-64.2-22.8-64.2-67.9c0-57,35-68.9,64.4-68.9c41.9,0,64,23.8,64,68.9
					C807.6,495.6,785.9,518.4,743.3,518.4L743.3,518.4z M743.3,399.4c-26,0-43.4,8.8-43.4,51.5c0,44,21,50,43.6,50
					c22.4,0,43.2-6.1,43.2-50C786.7,408.2,769.4,399.4,743.3,399.4L743.3,399.4z"/>
			</g>
			<g>
				<path class="st0" d="M1019.1,518.4c-42.6,0-64.3-22.8-64.3-67.9c0-57,35.1-68.9,64.5-68.9c41.9,0,64.1,23.8,64.1,68.9
					C1083.4,495.6,1061.8,518.4,1019.1,518.4L1019.1,518.4z M1019.1,399.4c-26.1,0-43.4,8.8-43.4,51.5c0,44,21,50,43.6,50
					c22.4,0,43.2-6.1,43.2-50C1062.5,408.2,1045.2,399.4,1019.1,399.4L1019.1,399.4z"/>
			</g>
			<g>
				<path class="st0" d="M391.1,516.7H377c-2.3,0-5.2-1.6-5.8-6.2l-11.7-99.8l-37.8,99.7c-1.2,2.9-2.9,6.2-5.8,6.2h-13.8
					c-3.6,0-5.4-4-6.7-6.9l-0.5-1.1l-37.1-97.9l-11.7,99.6c-0.5,4.6-3.4,6.3-5.8,6.3h-14.1L241.1,388c0.8-4.3,4-4.7,7.4-4.7H261
					c4,0,5.5,0.9,6.8,4l40.8,105.8l40.8-105.8c1.3-3.1,2.8-4,6.8-4.1h12.5c3.4,0,6.5,0.4,7.4,4.6L391.1,516.7L391.1,516.7z"/>
			</g>
			<g>
				<path class="st0" d="M532.3,516.7H518c-3.5,0-6.8-0.4-9-5l-9.9-25.8h-44.4l6.7-16.8h31.3l-13.5-35.4c-3.6-9.6-7-20.3-8.7-25.7
					c-1.7,5.4-5.2,16.1-9.2,25.8L430.6,511c-2.1,5.2-5.6,5.7-9.2,5.7h-13.8l52.3-130.1c1.3-2.5,2.8-3.3,6.2-3.3h9.4
					c4.9,0,5.6,1.7,7.2,5.3l0.4,0.9L532.3,516.7L532.3,516.7z"/>
			</g>
			<g>
				<path class="st0" d="M594.8,449.4l12.6,0c20.9,0,30.2-3.5,30.2-24c0-18.3-7.3-24.2-30.2-24.2h-32.4c-1.6,0-3.7,1.7-3.7,3.4
					v105.1c-0.3,3-2.9,7-7.5,7H551V395.1c0-7.4,3.9-11.8,10.4-11.8h48.6c32.2,0,48.5,13.8,48.5,41c0,23-10.8,36.6-33.1,41.4
					c-4.1,0.7-7.3,0.7-11.5,0.9l46.5,44.7c1.3,1.5,1.7,2.7,1.2,3.8c-0.3,0.6-1.1,1.6-3.4,1.6l0,0h-14.3c-2.4,0-3.9-0.9-4.9-1.7
					l-50.5-48.4c-3.4-3.5-6.1-7.9-2.9-12.6C588,450.5,591.5,449.4,594.8,449.4z"/>
			</g>
			<g>
				<path class="st0" d="M843.6,516.7H831v-122c0-6.7,4.1-11.4,9.9-11.4h46.5c35,0,52.7,15.6,52.7,46.3c0,31-17.3,46.1-53,46.1
					h-21.9v-17.9h19.5c26.1,0,34.5-6.6,34.5-27.2c0-22.4-8.4-29.5-34.5-29.5h-29.6c-2,0-4,1.6-4,3.8l-0.1,104.3
					C851.2,511.9,848.6,516.7,843.6,516.7L843.6,516.7z"/>
			</g>
			<g>
				<path class="st0" d="M1163,516.7h-63.4l0.3-1.4c0.1-0.7,3.6-16.5,14.6-16.5h49.4c15.9,0,23.6-5.5,23.6-16.7
					c0-3.6-2.3-8.9-8.7-11.9c-2.6-1.2-10.3-4.4-19.2-8.1c-12.5-5.2-28.1-11.6-35.7-15.2l-3-1.4c-11.5-5.3-22.4-10.3-22.4-27.2
					c0-21.7,16.9-35.1,44.2-35.1h60.2l-0.5,1.5c-0.2,0.7-5.2,16.4-17.9,16.4h-43.6c-12,0-24.1,4.9-24.1,15.8c0,8,6.8,10.8,17.1,15.2
					c1.5,0.6,3,1.3,4.6,2c3.5,1.5,10.3,4.4,17.9,7.7c14.1,6,30,12.8,34.4,15c7.4,3.7,15.9,9.8,15.9,24.4
					C1206.6,503.4,1190.3,516.7,1163,516.7L1163,516.7z"/>
			</g>
			<g>
				<path class="st0" d="M1276.2,516.7h-12.6V401.2h-51.9l0.4-1.5c0.2-0.7,4.8-16.4,18-16.4h107.1l-0.2,1.3
					c0,0.2-2.1,16.6-16.2,16.6h-37l-0.1,108.2C1283.8,511.9,1281.2,516.7,1276.2,516.7L1276.2,516.7z"/>
			</g>
		</g>
	</g>
</g>
</svg>
